<mxfile host="app.diagrams.net" modified="2024-06-14T14:39:34.968Z" agent="Mozilla/5.0 (Macintosh; Intel Mac OS X 10_15_7) AppleWebKit/537.36 (KHTML, like Gecko) Chrome/125.0.0.0 Safari/537.36" version="24.5.4" etag="KPG3D0AzWNBLmicSeld4" type="github">
  <diagram name="Page-1" id="MAVnO8bT8Hwzf03eEjsF">
    <mxGraphModel>
      <root>
        <mxCell id="0" />
        <mxCell id="1" parent="0" />
      </root>
    </mxGraphModel>
  </diagram>
</mxfile>
